# xmcd CD database file
#
# Track frame offsets:
#	182
#	11010
#	22835
#	40630
#	49115
#	58827
#	71562
#	80827
#	97362
#	112640
#	124967
#	143027
#	153292
#	167652
#	180622
#	194835
#	204877
#	216127
#	237607
#	256220
#	264292
#	271897
#	284755
#	296652
#	312795
#	325812
#	335850
#
# Disc length: 4613 seconds
#
# Revision: 4
# Processed by: cddbd v1.5.2PL0 Copyright (c) Steve Scherf et al.
# Submitted via: CDex 1.51
#
DISCID=9912031b
DTITLE=The Dubliners - At Their Best [Pulse]
DYEAR=1996
DGENRE=Folk
TTITLE0=Off To Dublin In The Green [T ar Bourke/Drew/Lynch/McKenna/Sheahan][66]
TTITLE1=Medley: Sunshine Hornpipe/Mountain Road [T a B/D/Kelly/McK/S][66] 
TTITLE2=Will You Come To The Bower [T a B/D/K/McK/S][66] 
TTITLE3=Peggy Lettermore [T a B/D/L/McK/S][64] 
TTITLE4=Medley: The Donegal Reel/The Longford Collector [T a B/D/L/McK/S][65] 
TTITLE5=Roddy MacCorely [T/Carbery B/D/L/McK/S][65] 
TTITLE6=I'll Tell My Ma [T a B/D/K/McK][64] 
TTITLE7=The Mason's Apron [T a B/D/L/McK/S][66] 
TTITLE8=Foggy Dew [Milligan/Fox a B/D/L/McK/S][66] 
TTITLE9=The Old Orange Flute [T a B/D/L/McK/S][65] 
TTITLE10=Roisin Dubh [T a B/D/L/McK/S][65] 
TTITLE11=The Holy Ground [T a B/D/K/McK][64] 
TTITLE12=Wild Rover [T a B/D/K/McK][64] 
TTITLE13=Easy And Slow [T a B/D/L/McK/S][72] 
TTITLE14=Home Boys Home [T a B/D/K/McK][64] 
TTITLE15=Chief O'Neils Favourite [T a B/D/K/McK]/S[66] 
TTITLE16=The Rocky Roads To Dublin [T a B/D/K/McK][64] 
TTITLE17=The Leaving Of Liverpool [T a B/D/L/McK/S][72] 
TTITLE18=Medley: Dublin[Macneice]/Nelson's Farewell [T a D/S/McK/B/K][66] 
TTITLE19=The Twang Man [T a D/S/McK/B/L]][72] 
TTITLE20=Jar Of Porter [T a B/D/K/McK][64] 
TTITLE21=Boulavogue [T a B/D/K/McK/S][72] 
TTITLE22=The Glendalough Saint [T a B/D/K/McK/S][66] 
TTITLE23=Air Fa La La Lo [T a B/D/L/McK/S][72] 
TTITLE24=McAlpine's Fusiliers [Behan][66]
TTITLE25=Banks Of The Roses [T a B/D/K/McK][64] 
TTITLE26=Within A Mile Of Dublin [T a B/D/K/McK/S][66] 
EXTD=YEAR: 1996
EXTT0=
EXTT1=
EXTT2=
EXTT3=
EXTT4=
EXTT5=
EXTT6=
EXTT7=
EXTT8=
EXTT9=
EXTT10=
EXTT11=
EXTT12=
EXTT13=
EXTT14=
EXTT15=
EXTT16=
EXTT17=
EXTT18=
EXTT19=
EXTT20=
EXTT21=
EXTT22=
EXTT23=
EXTT24=
EXTT25=
EXTT26=
PLAYORDER=
